<mxfile host="app.diagrams.net" agent="Mozilla/5.0 (Windows NT 10.0; Win64; x64; rv:136.0) Gecko/20100101 Firefox/136.0" version="27.0.6">
  <diagram name="Pagina-1" id="nXhE66f82TfM_zFsYr40">
    <mxGraphModel dx="2906" dy="938" grid="1" gridSize="10" guides="1" tooltips="1" connect="1" arrows="1" fold="1" page="1" pageScale="1" pageWidth="1169" pageHeight="827" math="0" shadow="0">
      <root>
        <mxCell id="0" />
        <mxCell id="1" parent="0" />
        <mxCell id="vIsVOew_LLngjpZRV1hN-1" value="Utente" style="rounded=0;whiteSpace=wrap;html=1;fillColor=#fff2cc;strokeColor=#d6b656;" parent="1" vertex="1">
          <mxGeometry x="150" y="160" width="120" height="60" as="geometry" />
        </mxCell>
        <mxCell id="vIsVOew_LLngjpZRV1hN-2" value="Artista" style="rounded=0;whiteSpace=wrap;html=1;fillColor=#fff2cc;strokeColor=#d6b656;" parent="1" vertex="1">
          <mxGeometry x="150" y="540" width="120" height="60" as="geometry" />
        </mxCell>
        <mxCell id="vIsVOew_LLngjpZRV1hN-3" value="Album" style="rounded=0;whiteSpace=wrap;html=1;fillColor=#fff2cc;strokeColor=#d6b656;" parent="1" vertex="1">
          <mxGeometry x="150" y="860" width="120" height="60" as="geometry" />
        </mxCell>
        <mxCell id="vIsVOew_LLngjpZRV1hN-4" value="Canzone" style="rounded=0;whiteSpace=wrap;html=1;fillColor=#fff2cc;strokeColor=#d6b656;" parent="1" vertex="1">
          <mxGeometry x="730" y="710" width="120" height="60" as="geometry" />
        </mxCell>
        <mxCell id="vIsVOew_LLngjpZRV1hN-5" value="Playlist" style="rounded=0;whiteSpace=wrap;html=1;fillColor=#fff2cc;strokeColor=#d6b656;" parent="1" vertex="1">
          <mxGeometry x="750" y="160" width="120" height="60" as="geometry" />
        </mxCell>
        <mxCell id="vIsVOew_LLngjpZRV1hN-6" value="Genere" style="rounded=0;whiteSpace=wrap;html=1;fillColor=#fff2cc;strokeColor=#d6b656;" parent="1" vertex="1">
          <mxGeometry x="1227" y="710" width="120" height="60" as="geometry" />
        </mxCell>
        <mxCell id="vIsVOew_LLngjpZRV1hN-7" value="segue" style="rhombus;whiteSpace=wrap;html=1;fillColor=#ffe6cc;strokeColor=#d79b00;" parent="1" vertex="1">
          <mxGeometry x="160" y="330" width="80" height="80" as="geometry" />
        </mxCell>
        <mxCell id="vIsVOew_LLngjpZRV1hN-8" value="crea" style="rhombus;whiteSpace=wrap;html=1;fillColor=#ffe6cc;strokeColor=#d79b00;" parent="1" vertex="1">
          <mxGeometry x="460" y="150" width="80" height="80" as="geometry" />
        </mxCell>
        <mxCell id="vIsVOew_LLngjpZRV1hN-10" value="raggruppa" style="rhombus;whiteSpace=wrap;html=1;fillColor=#ffe6cc;strokeColor=#d79b00;" parent="1" vertex="1">
          <mxGeometry x="770" y="380" width="80" height="80" as="geometry" />
        </mxCell>
        <mxCell id="vIsVOew_LLngjpZRV1hN-11" value="pubblica" style="rhombus;whiteSpace=wrap;html=1;fillColor=#ffe6cc;strokeColor=#d79b00;" parent="1" vertex="1">
          <mxGeometry x="160" y="685" width="80" height="80" as="geometry" />
        </mxCell>
        <mxCell id="vIsVOew_LLngjpZRV1hN-12" value="interpreta" style="rhombus;whiteSpace=wrap;html=1;fillColor=#ffe6cc;strokeColor=#d79b00;" parent="1" vertex="1">
          <mxGeometry x="460" y="530" width="80" height="80" as="geometry" />
        </mxCell>
        <mxCell id="vIsVOew_LLngjpZRV1hN-13" value="appartiene" style="rhombus;whiteSpace=wrap;html=1;fillColor=#ffe6cc;strokeColor=#d79b00;" parent="1" vertex="1">
          <mxGeometry x="1010" y="700" width="80" height="80" as="geometry" />
        </mxCell>
        <mxCell id="vIsVOew_LLngjpZRV1hN-16" value="email" style="ellipse;whiteSpace=wrap;html=1;fillColor=#dae8fc;strokeColor=#6c8ebf;" parent="1" vertex="1">
          <mxGeometry x="-90" y="170" width="100" height="40" as="geometry" />
        </mxCell>
        <mxCell id="vIsVOew_LLngjpZRV1hN-17" value="dataRegistrazione" style="ellipse;whiteSpace=wrap;html=1;fillColor=#dae8fc;strokeColor=#6c8ebf;" parent="1" vertex="1">
          <mxGeometry x="-72.5" y="275" width="100" height="40" as="geometry" />
        </mxCell>
        <mxCell id="vIsVOew_LLngjpZRV1hN-19" value="paese" style="ellipse;whiteSpace=wrap;html=1;direction=west;fillColor=#dae8fc;strokeColor=#6c8ebf;" parent="1" vertex="1">
          <mxGeometry x="81" y="10" width="100" height="40" as="geometry" />
        </mxCell>
        <mxCell id="vIsVOew_LLngjpZRV1hN-28" value="&lt;b&gt;&lt;u&gt;idPlaylist&lt;/u&gt;&lt;/b&gt;" style="ellipse;whiteSpace=wrap;html=1;direction=west;fillColor=#dae8fc;strokeColor=#6c8ebf;" parent="1" vertex="1">
          <mxGeometry x="580" y="10" width="100" height="40" as="geometry" />
        </mxCell>
        <mxCell id="vIsVOew_LLngjpZRV1hN-29" value="nome" style="ellipse;whiteSpace=wrap;html=1;direction=west;fillColor=#dae8fc;strokeColor=#6c8ebf;" parent="1" vertex="1">
          <mxGeometry x="700" y="10" width="100" height="40" as="geometry" />
        </mxCell>
        <mxCell id="vIsVOew_LLngjpZRV1hN-30" value="descrizione" style="ellipse;whiteSpace=wrap;html=1;direction=west;fillColor=#dae8fc;strokeColor=#6c8ebf;" parent="1" vertex="1">
          <mxGeometry x="820" y="10" width="100" height="40" as="geometry" />
        </mxCell>
        <mxCell id="vIsVOew_LLngjpZRV1hN-31" value="dataCreazione" style="ellipse;whiteSpace=wrap;html=1;direction=west;fillColor=#dae8fc;strokeColor=#6c8ebf;" parent="1" vertex="1">
          <mxGeometry x="930" y="60" width="100" height="40" as="geometry" />
        </mxCell>
        <mxCell id="vIsVOew_LLngjpZRV1hN-38" value="titolo" style="ellipse;whiteSpace=wrap;html=1;direction=west;fillColor=#dae8fc;strokeColor=#6c8ebf;" parent="1" vertex="1">
          <mxGeometry x="670" y="880" width="100" height="40" as="geometry" />
        </mxCell>
        <mxCell id="vIsVOew_LLngjpZRV1hN-39" value="durata" style="ellipse;whiteSpace=wrap;html=1;direction=west;fillColor=#dae8fc;strokeColor=#6c8ebf;" parent="1" vertex="1">
          <mxGeometry x="860" y="920" width="100" height="40" as="geometry" />
        </mxCell>
        <mxCell id="vIsVOew_LLngjpZRV1hN-40" value="dataUscita" style="ellipse;whiteSpace=wrap;html=1;direction=west;fillColor=#dae8fc;strokeColor=#6c8ebf;" parent="1" vertex="1">
          <mxGeometry x="890" y="600" width="100" height="40" as="geometry" />
        </mxCell>
        <mxCell id="vIsVOew_LLngjpZRV1hN-50" value="&lt;u&gt;&lt;span&gt;nomeGenere&lt;/span&gt;&lt;/u&gt;" style="ellipse;whiteSpace=wrap;html=1;direction=west;fillColor=#dae8fc;strokeColor=#6c8ebf;fontStyle=5" parent="1" vertex="1">
          <mxGeometry x="1237" y="860" width="100" height="40" as="geometry" />
        </mxCell>
        <mxCell id="vIsVOew_LLngjpZRV1hN-53" value="&lt;b&gt;&lt;u&gt;idAlbum&lt;/u&gt;&lt;/b&gt;" style="ellipse;whiteSpace=wrap;html=1;direction=west;fillColor=#dae8fc;strokeColor=#6c8ebf;" parent="1" vertex="1">
          <mxGeometry x="10" y="780" width="100" height="40" as="geometry" />
        </mxCell>
        <mxCell id="vIsVOew_LLngjpZRV1hN-54" value="titolo" style="ellipse;whiteSpace=wrap;html=1;direction=west;fillColor=#dae8fc;strokeColor=#6c8ebf;" parent="1" vertex="1">
          <mxGeometry x="81" y="1010" width="100" height="40" as="geometry" />
        </mxCell>
        <mxCell id="vIsVOew_LLngjpZRV1hN-55" value="dataPubblicazione" style="ellipse;whiteSpace=wrap;html=1;direction=west;fillColor=#dae8fc;strokeColor=#6c8ebf;" parent="1" vertex="1">
          <mxGeometry x="230" y="1000" width="100" height="50" as="geometry" />
        </mxCell>
        <mxCell id="vIsVOew_LLngjpZRV1hN-62" value="nomeArte" style="ellipse;whiteSpace=wrap;html=1;direction=west;fillColor=#dae8fc;strokeColor=#6c8ebf;" parent="1" vertex="1">
          <mxGeometry x="-60" y="585" width="100" height="40" as="geometry" />
        </mxCell>
        <mxCell id="vIsVOew_LLngjpZRV1hN-63" value="nazionalitÃ " style="ellipse;whiteSpace=wrap;html=1;direction=west;fillColor=#dae8fc;strokeColor=#6c8ebf;" parent="1" vertex="1">
          <mxGeometry x="-60" y="520" width="100" height="40" as="geometry" />
        </mxCell>
        <mxCell id="vIsVOew_LLngjpZRV1hN-69" value="dataNascita" style="ellipse;whiteSpace=wrap;html=1;direction=west;fillColor=#dae8fc;strokeColor=#6c8ebf;" parent="1" vertex="1">
          <mxGeometry x="210" y="10" width="100" height="40" as="geometry" />
        </mxCell>
        <mxCell id="vIsVOew_LLngjpZRV1hN-70" value="tipoAbbonamento" style="ellipse;whiteSpace=wrap;html=1;direction=west;fillColor=#dae8fc;strokeColor=#6c8ebf;" parent="1" vertex="1">
          <mxGeometry x="320" y="40" width="100" height="40" as="geometry" />
        </mxCell>
        <mxCell id="vIsVOew_LLngjpZRV1hN-109" value="" style="endArrow=none;html=1;rounded=0;exitX=1;exitY=0.5;exitDx=0;exitDy=0;entryX=0;entryY=0.5;entryDx=0;entryDy=0;" parent="1" source="vIsVOew_LLngjpZRV1hN-1" target="vIsVOew_LLngjpZRV1hN-8" edge="1">
          <mxGeometry width="50" height="50" relative="1" as="geometry">
            <mxPoint x="460" y="350" as="sourcePoint" />
            <mxPoint x="510" y="300" as="targetPoint" />
          </mxGeometry>
        </mxCell>
        <mxCell id="vIsVOew_LLngjpZRV1hN-110" value="" style="endArrow=none;html=1;rounded=0;exitX=1;exitY=0.5;exitDx=0;exitDy=0;entryX=0;entryY=0.5;entryDx=0;entryDy=0;" parent="1" source="vIsVOew_LLngjpZRV1hN-8" target="vIsVOew_LLngjpZRV1hN-5" edge="1">
          <mxGeometry width="50" height="50" relative="1" as="geometry">
            <mxPoint x="450" y="180" as="sourcePoint" />
            <mxPoint x="720" y="190" as="targetPoint" />
          </mxGeometry>
        </mxCell>
        <mxCell id="vIsVOew_LLngjpZRV1hN-111" value="" style="endArrow=none;html=1;rounded=0;exitX=0.5;exitY=0;exitDx=0;exitDy=0;entryX=0.5;entryY=1;entryDx=0;entryDy=0;" parent="1" source="vIsVOew_LLngjpZRV1hN-10" target="vIsVOew_LLngjpZRV1hN-5" edge="1">
          <mxGeometry width="50" height="50" relative="1" as="geometry">
            <mxPoint x="530" y="280" as="sourcePoint" />
            <mxPoint x="720" y="280" as="targetPoint" />
          </mxGeometry>
        </mxCell>
        <mxCell id="vIsVOew_LLngjpZRV1hN-112" value="" style="endArrow=none;html=1;rounded=0;exitX=0.5;exitY=1;exitDx=0;exitDy=0;entryX=0.5;entryY=0;entryDx=0;entryDy=0;" parent="1" source="vIsVOew_LLngjpZRV1hN-10" edge="1">
          <mxGeometry width="50" height="50" relative="1" as="geometry">
            <mxPoint x="810" y="400" as="sourcePoint" />
            <mxPoint x="810" y="710" as="targetPoint" />
          </mxGeometry>
        </mxCell>
        <mxCell id="vIsVOew_LLngjpZRV1hN-113" value="" style="endArrow=none;html=1;rounded=0;exitX=0.5;exitY=1;exitDx=0;exitDy=0;entryX=0.5;entryY=0;entryDx=0;entryDy=0;" parent="1" target="vIsVOew_LLngjpZRV1hN-7" edge="1">
          <mxGeometry width="50" height="50" relative="1" as="geometry">
            <mxPoint x="200" y="220" as="sourcePoint" />
            <mxPoint x="450" y="640" as="targetPoint" />
          </mxGeometry>
        </mxCell>
        <mxCell id="vIsVOew_LLngjpZRV1hN-114" value="" style="endArrow=none;html=1;rounded=0;exitX=0.5;exitY=1;exitDx=0;exitDy=0;entryX=0.5;entryY=0;entryDx=0;entryDy=0;" parent="1" source="vIsVOew_LLngjpZRV1hN-7" edge="1">
          <mxGeometry width="50" height="50" relative="1" as="geometry">
            <mxPoint x="330" y="440" as="sourcePoint" />
            <mxPoint x="200" y="540" as="targetPoint" />
          </mxGeometry>
        </mxCell>
        <mxCell id="vIsVOew_LLngjpZRV1hN-115" value="" style="endArrow=none;html=1;rounded=0;exitX=0.5;exitY=1;exitDx=0;exitDy=0;" parent="1" target="vIsVOew_LLngjpZRV1hN-11" edge="1">
          <mxGeometry width="50" height="50" relative="1" as="geometry">
            <mxPoint x="200" y="600" as="sourcePoint" />
            <mxPoint x="340" y="710" as="targetPoint" />
          </mxGeometry>
        </mxCell>
        <mxCell id="vIsVOew_LLngjpZRV1hN-116" value="" style="endArrow=none;html=1;rounded=0;exitX=0.5;exitY=1;exitDx=0;exitDy=0;entryX=0.5;entryY=0;entryDx=0;entryDy=0;" parent="1" source="vIsVOew_LLngjpZRV1hN-11" edge="1">
          <mxGeometry width="50" height="50" relative="1" as="geometry">
            <mxPoint x="320" y="830" as="sourcePoint" />
            <mxPoint x="200" y="860" as="targetPoint" />
          </mxGeometry>
        </mxCell>
        <mxCell id="vIsVOew_LLngjpZRV1hN-117" value="" style="endArrow=none;html=1;rounded=0;exitX=1;exitY=0.5;exitDx=0;exitDy=0;entryX=0;entryY=0.5;entryDx=0;entryDy=0;" parent="1" source="vIsVOew_LLngjpZRV1hN-2" target="vIsVOew_LLngjpZRV1hN-12" edge="1">
          <mxGeometry width="50" height="50" relative="1" as="geometry">
            <mxPoint x="260" y="790" as="sourcePoint" />
            <mxPoint x="260" y="890" as="targetPoint" />
            <Array as="points">
              <mxPoint x="360" y="570" />
            </Array>
          </mxGeometry>
        </mxCell>
        <mxCell id="vIsVOew_LLngjpZRV1hN-118" value="" style="endArrow=none;html=1;rounded=0;exitX=1;exitY=0.5;exitDx=0;exitDy=0;entryX=0;entryY=0.25;entryDx=0;entryDy=0;" parent="1" source="vIsVOew_LLngjpZRV1hN-12" target="vIsVOew_LLngjpZRV1hN-4" edge="1">
          <mxGeometry width="50" height="50" relative="1" as="geometry">
            <mxPoint x="420" y="770" as="sourcePoint" />
            <mxPoint x="610" y="840" as="targetPoint" />
            <Array as="points">
              <mxPoint x="640" y="570" />
              <mxPoint x="640" y="725" />
            </Array>
          </mxGeometry>
        </mxCell>
        <mxCell id="vIsVOew_LLngjpZRV1hN-119" value="" style="endArrow=none;html=1;rounded=0;exitX=0;exitY=0.5;exitDx=0;exitDy=0;entryX=1;entryY=0.5;entryDx=0;entryDy=0;" parent="1" source="vIsVOew_LLngjpZRV1hN-13" target="vIsVOew_LLngjpZRV1hN-4" edge="1">
          <mxGeometry width="50" height="50" relative="1" as="geometry">
            <mxPoint x="790" y="610" as="sourcePoint" />
            <mxPoint x="790" y="770" as="targetPoint" />
          </mxGeometry>
        </mxCell>
        <mxCell id="vIsVOew_LLngjpZRV1hN-120" value="" style="endArrow=none;html=1;rounded=0;exitX=1;exitY=0.5;exitDx=0;exitDy=0;entryX=0;entryY=0.5;entryDx=0;entryDy=0;" parent="1" source="vIsVOew_LLngjpZRV1hN-13" target="vIsVOew_LLngjpZRV1hN-6" edge="1">
          <mxGeometry width="50" height="50" relative="1" as="geometry">
            <mxPoint x="970" y="730" as="sourcePoint" />
            <mxPoint x="970" y="890" as="targetPoint" />
          </mxGeometry>
        </mxCell>
        <mxCell id="vIsVOew_LLngjpZRV1hN-121" value="(1,1)" style="text;html=1;align=center;verticalAlign=middle;whiteSpace=wrap;rounded=0;" parent="1" vertex="1">
          <mxGeometry x="270" y="160" width="60" height="30" as="geometry" />
        </mxCell>
        <mxCell id="vIsVOew_LLngjpZRV1hN-122" value="(0,N)" style="text;html=1;align=center;verticalAlign=middle;whiteSpace=wrap;rounded=0;" parent="1" vertex="1">
          <mxGeometry x="690" y="160" width="60" height="30" as="geometry" />
        </mxCell>
        <mxCell id="vIsVOew_LLngjpZRV1hN-123" value="(0,N)" style="text;html=1;align=center;verticalAlign=middle;whiteSpace=wrap;rounded=0;" parent="1" vertex="1">
          <mxGeometry x="810" y="230" width="60" height="30" as="geometry" />
        </mxCell>
        <mxCell id="vIsVOew_LLngjpZRV1hN-124" value="(1,N)" style="text;html=1;align=center;verticalAlign=middle;whiteSpace=wrap;rounded=0;" parent="1" vertex="1">
          <mxGeometry x="800" y="660" width="60" height="30" as="geometry" />
        </mxCell>
        <mxCell id="vIsVOew_LLngjpZRV1hN-125" value="(1,N)" style="text;html=1;align=center;verticalAlign=middle;whiteSpace=wrap;rounded=0;" parent="1" vertex="1">
          <mxGeometry x="200" y="600" width="60" height="30" as="geometry" />
        </mxCell>
        <mxCell id="vIsVOew_LLngjpZRV1hN-126" value="(0,N)" style="text;html=1;align=center;verticalAlign=middle;whiteSpace=wrap;rounded=0;" parent="1" vertex="1">
          <mxGeometry x="200" y="830" width="60" height="30" as="geometry" />
        </mxCell>
        <mxCell id="vIsVOew_LLngjpZRV1hN-128" value="contiene" style="rhombus;whiteSpace=wrap;html=1;fillColor=#ffe6cc;strokeColor=#d79b00;" parent="1" vertex="1">
          <mxGeometry x="460" y="850" width="80" height="80" as="geometry" />
        </mxCell>
        <mxCell id="vIsVOew_LLngjpZRV1hN-129" value="" style="endArrow=none;html=1;rounded=0;exitX=1;exitY=0.5;exitDx=0;exitDy=0;entryX=0;entryY=0.5;entryDx=0;entryDy=0;" parent="1" source="vIsVOew_LLngjpZRV1hN-3" target="vIsVOew_LLngjpZRV1hN-128" edge="1">
          <mxGeometry width="50" height="50" relative="1" as="geometry">
            <mxPoint x="690" y="880" as="sourcePoint" />
            <mxPoint x="740" y="830" as="targetPoint" />
          </mxGeometry>
        </mxCell>
        <mxCell id="vIsVOew_LLngjpZRV1hN-130" value="" style="endArrow=none;html=1;rounded=0;exitX=1;exitY=0.5;exitDx=0;exitDy=0;entryX=0;entryY=0.75;entryDx=0;entryDy=0;" parent="1" source="vIsVOew_LLngjpZRV1hN-128" target="vIsVOew_LLngjpZRV1hN-4" edge="1">
          <mxGeometry width="50" height="50" relative="1" as="geometry">
            <mxPoint x="690" y="880" as="sourcePoint" />
            <mxPoint x="740" y="830" as="targetPoint" />
            <Array as="points">
              <mxPoint x="640" y="890" />
              <mxPoint x="640" y="755" />
            </Array>
          </mxGeometry>
        </mxCell>
        <mxCell id="vIsVOew_LLngjpZRV1hN-131" value="(1,N)" style="text;html=1;align=center;verticalAlign=middle;whiteSpace=wrap;rounded=0;" parent="1" vertex="1">
          <mxGeometry x="670" y="760" width="60" height="30" as="geometry" />
        </mxCell>
        <mxCell id="vIsVOew_LLngjpZRV1hN-132" value="(0,N)" style="text;html=1;align=center;verticalAlign=middle;whiteSpace=wrap;rounded=0;" parent="1" vertex="1">
          <mxGeometry x="270" y="890" width="60" height="30" as="geometry" />
        </mxCell>
        <mxCell id="vIsVOew_LLngjpZRV1hN-133" value="(1,N)" style="text;html=1;align=center;verticalAlign=middle;whiteSpace=wrap;rounded=0;" parent="1" vertex="1">
          <mxGeometry x="850" y="710" width="60" height="30" as="geometry" />
        </mxCell>
        <mxCell id="vIsVOew_LLngjpZRV1hN-134" value="(1,N)" style="text;html=1;align=center;verticalAlign=middle;whiteSpace=wrap;rounded=0;" parent="1" vertex="1">
          <mxGeometry x="1170" y="710" width="60" height="30" as="geometry" />
        </mxCell>
        <mxCell id="vIsVOew_LLngjpZRV1hN-135" value="(0,N)" style="text;html=1;align=center;verticalAlign=middle;whiteSpace=wrap;rounded=0;" parent="1" vertex="1">
          <mxGeometry x="190" y="230" width="60" height="30" as="geometry" />
        </mxCell>
        <mxCell id="vIsVOew_LLngjpZRV1hN-136" value="(0,N)" style="text;html=1;align=center;verticalAlign=middle;whiteSpace=wrap;rounded=0;" parent="1" vertex="1">
          <mxGeometry x="200" y="510" width="60" height="30" as="geometry" />
        </mxCell>
        <mxCell id="vIsVOew_LLngjpZRV1hN-137" value="(1,N)" style="text;html=1;align=center;verticalAlign=middle;whiteSpace=wrap;rounded=0;" parent="1" vertex="1">
          <mxGeometry x="270" y="540" width="60" height="30" as="geometry" />
        </mxCell>
        <mxCell id="vIsVOew_LLngjpZRV1hN-138" value="(1,N)" style="text;html=1;align=center;verticalAlign=middle;whiteSpace=wrap;rounded=0;" parent="1" vertex="1">
          <mxGeometry x="670" y="693" width="60" height="30" as="geometry" />
        </mxCell>
        <mxCell id="fkhrFofiCiA1RjEBbNGL-3" value="tipologia" style="ellipse;whiteSpace=wrap;html=1;fillColor=#dae8fc;strokeColor=#6c8ebf;" vertex="1" parent="1">
          <mxGeometry x="340" y="960" width="80" height="40" as="geometry" />
        </mxCell>
        <mxCell id="fkhrFofiCiA1RjEBbNGL-6" value="Casa Discografica" style="rounded=0;whiteSpace=wrap;html=1;fillColor=#fff2cc;strokeColor=#d6b656;" vertex="1" parent="1">
          <mxGeometry x="-394" y="850" width="120" height="60" as="geometry" />
        </mxCell>
        <mxCell id="fkhrFofiCiA1RjEBbNGL-7" value="produce" style="rhombus;whiteSpace=wrap;html=1;fillColor=#ffe6cc;strokeColor=#d79b00;" vertex="1" parent="1">
          <mxGeometry x="-110" y="840" width="80" height="80" as="geometry" />
        </mxCell>
        <mxCell id="fkhrFofiCiA1RjEBbNGL-8" value="" style="endArrow=none;html=1;rounded=0;exitX=1;exitY=0.5;exitDx=0;exitDy=0;entryX=0;entryY=0.5;entryDx=0;entryDy=0;" edge="1" parent="1" source="fkhrFofiCiA1RjEBbNGL-6" target="fkhrFofiCiA1RjEBbNGL-7">
          <mxGeometry width="50" height="50" relative="1" as="geometry">
            <mxPoint x="180" y="870" as="sourcePoint" />
            <mxPoint x="230" y="820" as="targetPoint" />
          </mxGeometry>
        </mxCell>
        <mxCell id="fkhrFofiCiA1RjEBbNGL-9" value="" style="endArrow=none;html=1;rounded=0;exitX=1;exitY=0.5;exitDx=0;exitDy=0;" edge="1" parent="1" source="fkhrFofiCiA1RjEBbNGL-7">
          <mxGeometry width="50" height="50" relative="1" as="geometry">
            <mxPoint x="-5" y="879.5" as="sourcePoint" />
            <mxPoint x="147" y="882" as="targetPoint" />
          </mxGeometry>
        </mxCell>
        <mxCell id="fkhrFofiCiA1RjEBbNGL-11" value="telefono" style="ellipse;whiteSpace=wrap;html=1;direction=west;fillColor=#dae8fc;strokeColor=#6c8ebf;" vertex="1" parent="1">
          <mxGeometry x="-554" y="930" width="100" height="40" as="geometry" />
        </mxCell>
        <mxCell id="fkhrFofiCiA1RjEBbNGL-17" value="indirizzo" style="ellipse;whiteSpace=wrap;html=1;direction=west;fillColor=#dae8fc;strokeColor=#6c8ebf;" vertex="1" parent="1">
          <mxGeometry x="-584" y="860" width="100" height="40" as="geometry" />
        </mxCell>
        <mxCell id="fkhrFofiCiA1RjEBbNGL-19" value="(1,1)" style="text;html=1;align=center;verticalAlign=middle;whiteSpace=wrap;rounded=0;" vertex="1" parent="1">
          <mxGeometry x="-274" y="885" width="60" height="30" as="geometry" />
        </mxCell>
        <mxCell id="fkhrFofiCiA1RjEBbNGL-20" value="(0,N)" style="text;html=1;align=center;verticalAlign=middle;whiteSpace=wrap;rounded=0;" vertex="1" parent="1">
          <mxGeometry x="60" y="885" width="60" height="30" as="geometry" />
        </mxCell>
        <mxCell id="fkhrFofiCiA1RjEBbNGL-21" value="password" style="ellipse;whiteSpace=wrap;html=1;fillColor=#dae8fc;strokeColor=#6c8ebf;" vertex="1" parent="1">
          <mxGeometry x="-77.5" y="220" width="100" height="40" as="geometry" />
        </mxCell>
        <mxCell id="fkhrFofiCiA1RjEBbNGL-23" value="nomeReale" style="ellipse;whiteSpace=wrap;html=1;direction=west;fillColor=#dae8fc;strokeColor=#6c8ebf;" vertex="1" parent="1">
          <mxGeometry x="-75" y="650" width="100" height="40" as="geometry" />
        </mxCell>
        <mxCell id="fkhrFofiCiA1RjEBbNGL-32" value="" style="endArrow=none;html=1;rounded=0;entryX=1;entryY=0;entryDx=0;entryDy=0;exitX=1;exitY=0.25;exitDx=0;exitDy=0;" edge="1" parent="1" source="vIsVOew_LLngjpZRV1hN-1" target="vIsVOew_LLngjpZRV1hN-70">
          <mxGeometry width="50" height="50" relative="1" as="geometry">
            <mxPoint x="560" y="320" as="sourcePoint" />
            <mxPoint x="350" y="40" as="targetPoint" />
          </mxGeometry>
        </mxCell>
        <mxCell id="fkhrFofiCiA1RjEBbNGL-33" value="" style="endArrow=none;html=1;rounded=0;exitX=0.5;exitY=0;exitDx=0;exitDy=0;" edge="1" parent="1" source="vIsVOew_LLngjpZRV1hN-1">
          <mxGeometry width="50" height="50" relative="1" as="geometry">
            <mxPoint x="180" y="165" as="sourcePoint" />
            <mxPoint x="250" y="50" as="targetPoint" />
          </mxGeometry>
        </mxCell>
        <mxCell id="fkhrFofiCiA1RjEBbNGL-34" value="" style="endArrow=none;html=1;rounded=0;exitX=0.183;exitY=0;exitDx=0;exitDy=0;exitPerimeter=0;" edge="1" parent="1" source="vIsVOew_LLngjpZRV1hN-1">
          <mxGeometry width="50" height="50" relative="1" as="geometry">
            <mxPoint x="172" y="150" as="sourcePoint" />
            <mxPoint x="140" y="50" as="targetPoint" />
          </mxGeometry>
        </mxCell>
        <mxCell id="fkhrFofiCiA1RjEBbNGL-35" value="dataUltimoAccesso" style="ellipse;whiteSpace=wrap;html=1;direction=west;fillColor=#dae8fc;strokeColor=#6c8ebf;" vertex="1" parent="1">
          <mxGeometry x="-40" y="20" width="110" height="40" as="geometry" />
        </mxCell>
        <mxCell id="fkhrFofiCiA1RjEBbNGL-36" value="" style="endArrow=none;html=1;rounded=0;exitX=0;exitY=0;exitDx=0;exitDy=0;entryX=0.299;entryY=0.014;entryDx=0;entryDy=0;entryPerimeter=0;" edge="1" parent="1" source="vIsVOew_LLngjpZRV1hN-1" target="fkhrFofiCiA1RjEBbNGL-35">
          <mxGeometry width="50" height="50" relative="1" as="geometry">
            <mxPoint x="81" y="170" as="sourcePoint" />
            <mxPoint x="49" y="70" as="targetPoint" />
          </mxGeometry>
        </mxCell>
        <mxCell id="fkhrFofiCiA1RjEBbNGL-39" value="&lt;b&gt;&lt;u&gt;username&lt;/u&gt;&lt;/b&gt;" style="ellipse;whiteSpace=wrap;html=1;direction=west;fillColor=#dae8fc;strokeColor=#6c8ebf;" vertex="1" parent="1">
          <mxGeometry x="-80" y="90" width="100" height="40" as="geometry" />
        </mxCell>
        <mxCell id="fkhrFofiCiA1RjEBbNGL-40" value="" style="endArrow=none;html=1;rounded=0;entryX=0;entryY=0.5;entryDx=0;entryDy=0;" edge="1" parent="1" target="fkhrFofiCiA1RjEBbNGL-39">
          <mxGeometry width="50" height="50" relative="1" as="geometry">
            <mxPoint x="150" y="180" as="sourcePoint" />
            <mxPoint x="80" y="100" as="targetPoint" />
          </mxGeometry>
        </mxCell>
        <mxCell id="fkhrFofiCiA1RjEBbNGL-41" value="" style="endArrow=none;html=1;rounded=0;exitX=0;exitY=0.5;exitDx=0;exitDy=0;entryX=1;entryY=0.5;entryDx=0;entryDy=0;" edge="1" parent="1" source="vIsVOew_LLngjpZRV1hN-1" target="vIsVOew_LLngjpZRV1hN-16">
          <mxGeometry width="50" height="50" relative="1" as="geometry">
            <mxPoint x="210" y="210" as="sourcePoint" />
            <mxPoint x="10" y="180" as="targetPoint" />
          </mxGeometry>
        </mxCell>
        <mxCell id="fkhrFofiCiA1RjEBbNGL-42" value="" style="endArrow=none;html=1;rounded=0;exitX=0;exitY=0.75;exitDx=0;exitDy=0;entryX=1;entryY=0.5;entryDx=0;entryDy=0;" edge="1" parent="1" source="vIsVOew_LLngjpZRV1hN-1" target="fkhrFofiCiA1RjEBbNGL-21">
          <mxGeometry width="50" height="50" relative="1" as="geometry">
            <mxPoint x="210" y="190" as="sourcePoint" />
            <mxPoint x="70" y="190" as="targetPoint" />
          </mxGeometry>
        </mxCell>
        <mxCell id="fkhrFofiCiA1RjEBbNGL-43" value="" style="endArrow=none;html=1;rounded=0;exitX=0.155;exitY=1.01;exitDx=0;exitDy=0;entryX=1;entryY=0.5;entryDx=0;entryDy=0;exitPerimeter=0;" edge="1" parent="1" source="vIsVOew_LLngjpZRV1hN-1">
          <mxGeometry width="50" height="50" relative="1" as="geometry">
            <mxPoint x="149.5" y="260" as="sourcePoint" />
            <mxPoint x="22.5" y="295" as="targetPoint" />
          </mxGeometry>
        </mxCell>
        <mxCell id="fkhrFofiCiA1RjEBbNGL-44" value="&lt;b&gt;&lt;u&gt;idArtista&lt;/u&gt;&lt;/b&gt;" style="ellipse;whiteSpace=wrap;html=1;direction=west;fillColor=#dae8fc;strokeColor=#6c8ebf;" vertex="1" parent="1">
          <mxGeometry x="-19" y="460" width="100" height="40" as="geometry" />
        </mxCell>
        <mxCell id="fkhrFofiCiA1RjEBbNGL-46" value="" style="endArrow=none;html=1;rounded=0;exitX=0.164;exitY=-0.052;exitDx=0;exitDy=0;exitPerimeter=0;entryX=0;entryY=0.5;entryDx=0;entryDy=0;" edge="1" parent="1">
          <mxGeometry width="50" height="50" relative="1" as="geometry">
            <mxPoint x="169.6800000000003" y="540.0000000000001" as="sourcePoint" />
            <mxPoint x="81" y="483.12" as="targetPoint" />
          </mxGeometry>
        </mxCell>
        <mxCell id="fkhrFofiCiA1RjEBbNGL-47" value="" style="endArrow=none;html=1;rounded=0;exitX=0;exitY=0.5;exitDx=0;exitDy=0;entryX=0;entryY=0.5;entryDx=0;entryDy=0;" edge="1" parent="1" source="vIsVOew_LLngjpZRV1hN-2">
          <mxGeometry width="50" height="50" relative="1" as="geometry">
            <mxPoint x="128.6800000000003" y="598.44" as="sourcePoint" />
            <mxPoint x="40" y="541.56" as="targetPoint" />
          </mxGeometry>
        </mxCell>
        <mxCell id="fkhrFofiCiA1RjEBbNGL-48" value="" style="endArrow=none;html=1;rounded=0;entryX=0;entryY=0.5;entryDx=0;entryDy=0;exitX=0;exitY=0.75;exitDx=0;exitDy=0;" edge="1" parent="1" source="vIsVOew_LLngjpZRV1hN-2" target="vIsVOew_LLngjpZRV1hN-62">
          <mxGeometry width="50" height="50" relative="1" as="geometry">
            <mxPoint x="140" y="590" as="sourcePoint" />
            <mxPoint x="90" y="560" as="targetPoint" />
          </mxGeometry>
        </mxCell>
        <mxCell id="fkhrFofiCiA1RjEBbNGL-49" value="" style="endArrow=none;html=1;rounded=0;entryX=0;entryY=0.5;entryDx=0;entryDy=0;exitX=0.145;exitY=1.033;exitDx=0;exitDy=0;exitPerimeter=0;" edge="1" parent="1" source="vIsVOew_LLngjpZRV1hN-2">
          <mxGeometry width="50" height="50" relative="1" as="geometry">
            <mxPoint x="135" y="650" as="sourcePoint" />
            <mxPoint x="25" y="670" as="targetPoint" />
          </mxGeometry>
        </mxCell>
        <mxCell id="fkhrFofiCiA1RjEBbNGL-50" value="" style="endArrow=none;html=1;rounded=0;exitX=0.25;exitY=0;exitDx=0;exitDy=0;entryX=0;entryY=0.5;entryDx=0;entryDy=0;" edge="1" parent="1" source="vIsVOew_LLngjpZRV1hN-3">
          <mxGeometry width="50" height="50" relative="1" as="geometry">
            <mxPoint x="190.00000000000028" y="866.8800000000001" as="sourcePoint" />
            <mxPoint x="101.32" y="810" as="targetPoint" />
          </mxGeometry>
        </mxCell>
        <mxCell id="fkhrFofiCiA1RjEBbNGL-51" value="" style="endArrow=none;html=1;rounded=0;entryX=0;entryY=0.5;entryDx=0;entryDy=0;exitX=0.25;exitY=1;exitDx=0;exitDy=0;" edge="1" parent="1" source="vIsVOew_LLngjpZRV1hN-3">
          <mxGeometry width="50" height="50" relative="1" as="geometry">
            <mxPoint x="270" y="942" as="sourcePoint" />
            <mxPoint x="128" y="1010" as="targetPoint" />
          </mxGeometry>
        </mxCell>
        <mxCell id="fkhrFofiCiA1RjEBbNGL-52" value="" style="endArrow=none;html=1;rounded=0;exitX=0.5;exitY=1;exitDx=0;exitDy=0;" edge="1" parent="1" source="vIsVOew_LLngjpZRV1hN-3">
          <mxGeometry width="50" height="50" relative="1" as="geometry">
            <mxPoint x="242" y="920" as="sourcePoint" />
            <mxPoint x="260" y="1000" as="targetPoint" />
          </mxGeometry>
        </mxCell>
        <mxCell id="fkhrFofiCiA1RjEBbNGL-53" value="" style="endArrow=none;html=1;rounded=0;" edge="1" parent="1" target="fkhrFofiCiA1RjEBbNGL-3">
          <mxGeometry width="50" height="50" relative="1" as="geometry">
            <mxPoint x="270" y="920" as="sourcePoint" />
            <mxPoint x="313" y="1056" as="targetPoint" />
          </mxGeometry>
        </mxCell>
        <mxCell id="fkhrFofiCiA1RjEBbNGL-55" value="" style="endArrow=none;html=1;rounded=0;exitX=0.25;exitY=0;exitDx=0;exitDy=0;entryX=0;entryY=0.5;entryDx=0;entryDy=0;" edge="1" parent="1">
          <mxGeometry width="50" height="50" relative="1" as="geometry">
            <mxPoint x="-394" y="850" as="sourcePoint" />
            <mxPoint x="-472.68" y="800" as="targetPoint" />
          </mxGeometry>
        </mxCell>
        <mxCell id="fkhrFofiCiA1RjEBbNGL-56" value="" style="endArrow=none;html=1;rounded=0;entryX=0;entryY=0.5;entryDx=0;entryDy=0;exitX=0;exitY=0.5;exitDx=0;exitDy=0;" edge="1" parent="1" source="fkhrFofiCiA1RjEBbNGL-6" target="fkhrFofiCiA1RjEBbNGL-17">
          <mxGeometry width="50" height="50" relative="1" as="geometry">
            <mxPoint x="-404" y="890" as="sourcePoint" />
            <mxPoint x="-434" y="820" as="targetPoint" />
          </mxGeometry>
        </mxCell>
        <mxCell id="fkhrFofiCiA1RjEBbNGL-57" value="" style="endArrow=none;html=1;rounded=0;exitX=0.181;exitY=1.01;exitDx=0;exitDy=0;exitPerimeter=0;entryX=0;entryY=0.5;entryDx=0;entryDy=0;" edge="1" parent="1" source="fkhrFofiCiA1RjEBbNGL-6" target="fkhrFofiCiA1RjEBbNGL-11">
          <mxGeometry width="50" height="50" relative="1" as="geometry">
            <mxPoint x="-300" y="895" as="sourcePoint" />
            <mxPoint x="-420" y="950" as="targetPoint" />
          </mxGeometry>
        </mxCell>
        <mxCell id="fkhrFofiCiA1RjEBbNGL-58" value="&lt;b&gt;&lt;u&gt;nome&lt;/u&gt;&lt;/b&gt;" style="ellipse;whiteSpace=wrap;html=1;direction=west;fillColor=#dae8fc;strokeColor=#6c8ebf;" vertex="1" parent="1">
          <mxGeometry x="-574" y="780" width="100" height="40" as="geometry" />
        </mxCell>
        <mxCell id="fkhrFofiCiA1RjEBbNGL-59" value="" style="endArrow=none;html=1;rounded=0;exitX=0.5;exitY=1;exitDx=0;exitDy=0;" edge="1" parent="1">
          <mxGeometry width="50" height="50" relative="1" as="geometry">
            <mxPoint x="-334.71000000000004" y="910" as="sourcePoint" />
            <mxPoint x="-334" y="1200" as="targetPoint" />
          </mxGeometry>
        </mxCell>
        <mxCell id="fkhrFofiCiA1RjEBbNGL-60" value="distribuisce" style="rhombus;whiteSpace=wrap;html=1;fillColor=#ffe6cc;strokeColor=#d79b00;" vertex="1" parent="1">
          <mxGeometry x="160" y="1161" width="80" height="80" as="geometry" />
        </mxCell>
        <mxCell id="fkhrFofiCiA1RjEBbNGL-61" value="" style="endArrow=none;html=1;rounded=0;entryX=0;entryY=0.5;entryDx=0;entryDy=0;" edge="1" parent="1" target="fkhrFofiCiA1RjEBbNGL-60">
          <mxGeometry width="50" height="50" relative="1" as="geometry">
            <mxPoint x="-334" y="1201" as="sourcePoint" />
            <mxPoint x="126" y="1201" as="targetPoint" />
            <Array as="points">
              <mxPoint x="26" y="1201" />
            </Array>
          </mxGeometry>
        </mxCell>
        <mxCell id="fkhrFofiCiA1RjEBbNGL-62" value="" style="endArrow=none;html=1;rounded=0;" edge="1" parent="1">
          <mxGeometry width="50" height="50" relative="1" as="geometry">
            <mxPoint x="240" y="1200.29" as="sourcePoint" />
            <mxPoint x="790" y="1200" as="targetPoint" />
            <Array as="points">
              <mxPoint x="600" y="1200.29" />
            </Array>
          </mxGeometry>
        </mxCell>
        <mxCell id="fkhrFofiCiA1RjEBbNGL-63" value="" style="endArrow=none;html=1;rounded=0;exitX=0.5;exitY=1;exitDx=0;exitDy=0;" edge="1" parent="1">
          <mxGeometry width="50" height="50" relative="1" as="geometry">
            <mxPoint x="850" y="764" as="sourcePoint" />
            <mxPoint x="980" y="860" as="targetPoint" />
          </mxGeometry>
        </mxCell>
        <mxCell id="fkhrFofiCiA1RjEBbNGL-64" value="&lt;div&gt;&lt;b&gt;&lt;u&gt;idCanzone&lt;/u&gt;&lt;/b&gt;&lt;/div&gt;" style="ellipse;whiteSpace=wrap;html=1;direction=west;fillColor=#dae8fc;strokeColor=#6c8ebf;" vertex="1" parent="1">
          <mxGeometry x="970" y="850" width="100" height="40" as="geometry" />
        </mxCell>
        <mxCell id="fkhrFofiCiA1RjEBbNGL-66" value="" style="endArrow=none;html=1;rounded=0;exitX=0.717;exitY=0.029;exitDx=0;exitDy=0;entryX=1;entryY=0;entryDx=0;entryDy=0;exitPerimeter=0;" edge="1" parent="1" source="vIsVOew_LLngjpZRV1hN-40" target="vIsVOew_LLngjpZRV1hN-4">
          <mxGeometry width="50" height="50" relative="1" as="geometry">
            <mxPoint x="900" y="614" as="sourcePoint" />
            <mxPoint x="870" y="710" as="targetPoint" />
          </mxGeometry>
        </mxCell>
        <mxCell id="fkhrFofiCiA1RjEBbNGL-67" value="" style="endArrow=none;html=1;rounded=0;exitX=0.5;exitY=1;exitDx=0;exitDy=0;" edge="1" parent="1">
          <mxGeometry width="50" height="50" relative="1" as="geometry">
            <mxPoint x="790" y="767.5" as="sourcePoint" />
            <mxPoint x="790" y="1200" as="targetPoint" />
          </mxGeometry>
        </mxCell>
        <mxCell id="fkhrFofiCiA1RjEBbNGL-68" value="" style="endArrow=none;html=1;rounded=0;exitX=0.5;exitY=1;exitDx=0;exitDy=0;entryX=0.5;entryY=1;entryDx=0;entryDy=0;" edge="1" parent="1" target="vIsVOew_LLngjpZRV1hN-39">
          <mxGeometry width="50" height="50" relative="1" as="geometry">
            <mxPoint x="815" y="770" as="sourcePoint" />
            <mxPoint x="945" y="866" as="targetPoint" />
          </mxGeometry>
        </mxCell>
        <mxCell id="fkhrFofiCiA1RjEBbNGL-69" value="" style="endArrow=none;html=1;rounded=0;exitX=0.5;exitY=1;exitDx=0;exitDy=0;" edge="1" parent="1" target="vIsVOew_LLngjpZRV1hN-38">
          <mxGeometry width="50" height="50" relative="1" as="geometry">
            <mxPoint x="742.5" y="770" as="sourcePoint" />
            <mxPoint x="837.5" y="920" as="targetPoint" />
          </mxGeometry>
        </mxCell>
        <mxCell id="fkhrFofiCiA1RjEBbNGL-71" value="" style="endArrow=none;html=1;rounded=0;exitX=0.5;exitY=1;exitDx=0;exitDy=0;" edge="1" parent="1">
          <mxGeometry width="50" height="50" relative="1" as="geometry">
            <mxPoint x="1286.29" y="770" as="sourcePoint" />
            <mxPoint x="1286.29" y="860" as="targetPoint" />
          </mxGeometry>
        </mxCell>
        <mxCell id="fkhrFofiCiA1RjEBbNGL-72" value="dataAggiuntaCanzone" style="ellipse;whiteSpace=wrap;html=1;direction=west;fillColor=#dae8fc;strokeColor=#6c8ebf;" vertex="1" parent="1">
          <mxGeometry x="930" y="400" width="130" height="40" as="geometry" />
        </mxCell>
        <mxCell id="fkhrFofiCiA1RjEBbNGL-73" value="" style="endArrow=none;html=1;rounded=0;entryX=1;entryY=0.5;entryDx=0;entryDy=0;" edge="1" parent="1" target="vIsVOew_LLngjpZRV1hN-10">
          <mxGeometry width="50" height="50" relative="1" as="geometry">
            <mxPoint x="930" y="420" as="sourcePoint" />
            <mxPoint x="940" y="495" as="targetPoint" />
          </mxGeometry>
        </mxCell>
        <mxCell id="fkhrFofiCiA1RjEBbNGL-74" value="" style="endArrow=none;html=1;rounded=0;entryX=1;entryY=0;entryDx=0;entryDy=0;" edge="1" parent="1" target="vIsVOew_LLngjpZRV1hN-5">
          <mxGeometry width="50" height="50" relative="1" as="geometry">
            <mxPoint x="940" y="90" as="sourcePoint" />
            <mxPoint x="870" y="171" as="targetPoint" />
          </mxGeometry>
        </mxCell>
        <mxCell id="fkhrFofiCiA1RjEBbNGL-75" value="" style="endArrow=none;html=1;rounded=0;exitX=0.5;exitY=0;exitDx=0;exitDy=0;entryX=0.75;entryY=0;entryDx=0;entryDy=0;" edge="1" parent="1" source="vIsVOew_LLngjpZRV1hN-30" target="vIsVOew_LLngjpZRV1hN-5">
          <mxGeometry width="50" height="50" relative="1" as="geometry">
            <mxPoint x="885" y="50" as="sourcePoint" />
            <mxPoint x="840" y="150" as="targetPoint" />
          </mxGeometry>
        </mxCell>
        <mxCell id="fkhrFofiCiA1RjEBbNGL-76" value="" style="endArrow=none;html=1;rounded=0;exitX=0.3;exitY=0;exitDx=0;exitDy=0;exitPerimeter=0;entryX=0.5;entryY=0;entryDx=0;entryDy=0;" edge="1" parent="1" source="vIsVOew_LLngjpZRV1hN-29" target="vIsVOew_LLngjpZRV1hN-5">
          <mxGeometry width="50" height="50" relative="1" as="geometry">
            <mxPoint x="780" y="40" as="sourcePoint" />
            <mxPoint x="800" y="150" as="targetPoint" />
          </mxGeometry>
        </mxCell>
        <mxCell id="fkhrFofiCiA1RjEBbNGL-77" value="" style="endArrow=none;html=1;rounded=0;exitX=0;exitY=0;exitDx=0;exitDy=0;entryX=1;entryY=0;entryDx=0;entryDy=0;" edge="1" parent="1" source="vIsVOew_LLngjpZRV1hN-28" target="vIsVOew_LLngjpZRV1hN-122">
          <mxGeometry width="50" height="50" relative="1" as="geometry">
            <mxPoint x="660" y="40" as="sourcePoint" />
            <mxPoint x="700" y="150" as="targetPoint" />
          </mxGeometry>
        </mxCell>
        <mxCell id="fkhrFofiCiA1RjEBbNGL-78" value="riproduce" style="rhombus;whiteSpace=wrap;html=1;fillColor=#ffe6cc;strokeColor=#d79b00;" vertex="1" parent="1">
          <mxGeometry x="459.33" y="353.36" width="80" height="80" as="geometry" />
        </mxCell>
        <mxCell id="fkhrFofiCiA1RjEBbNGL-79" value="" style="endArrow=none;html=1;rounded=0;entryX=0;entryY=0.5;entryDx=0;entryDy=0;" edge="1" parent="1" target="fkhrFofiCiA1RjEBbNGL-78">
          <mxGeometry width="50" height="50" relative="1" as="geometry">
            <mxPoint x="259.33" y="393.36" as="sourcePoint" />
            <mxPoint x="509.33" y="503.36" as="targetPoint" />
            <Array as="points">
              <mxPoint x="339.33" y="393.36" />
            </Array>
          </mxGeometry>
        </mxCell>
        <mxCell id="fkhrFofiCiA1RjEBbNGL-80" value="" style="endArrow=none;html=1;rounded=0;exitX=1;exitY=0.5;exitDx=0;exitDy=0;" edge="1" parent="1" source="fkhrFofiCiA1RjEBbNGL-78">
          <mxGeometry width="50" height="50" relative="1" as="geometry">
            <mxPoint x="449.33" y="383.36" as="sourcePoint" />
            <mxPoint x="750" y="393" as="targetPoint" />
          </mxGeometry>
        </mxCell>
        <mxCell id="fkhrFofiCiA1RjEBbNGL-81" value="" style="endArrow=none;html=1;rounded=0;exitX=0.886;exitY=1.011;exitDx=0;exitDy=0;exitPerimeter=0;" edge="1" parent="1" source="vIsVOew_LLngjpZRV1hN-1">
          <mxGeometry width="50" height="50" relative="1" as="geometry">
            <mxPoint x="259" y="240" as="sourcePoint" />
            <mxPoint x="259.33" y="393.36" as="targetPoint" />
          </mxGeometry>
        </mxCell>
        <mxCell id="fkhrFofiCiA1RjEBbNGL-82" value="" style="endArrow=none;html=1;rounded=0;entryX=0.164;entryY=0;entryDx=0;entryDy=0;entryPerimeter=0;" edge="1" parent="1" target="vIsVOew_LLngjpZRV1hN-4">
          <mxGeometry width="50" height="50" relative="1" as="geometry">
            <mxPoint x="750" y="391.36" as="sourcePoint" />
            <mxPoint x="750" y="723" as="targetPoint" />
          </mxGeometry>
        </mxCell>
        <mxCell id="fkhrFofiCiA1RjEBbNGL-83" value="dataRiproduzione" style="ellipse;whiteSpace=wrap;html=1;direction=west;fillColor=#dae8fc;strokeColor=#6c8ebf;" vertex="1" parent="1">
          <mxGeometry x="580" y="270" width="100" height="40" as="geometry" />
        </mxCell>
        <mxCell id="fkhrFofiCiA1RjEBbNGL-84" value="" style="endArrow=none;html=1;rounded=0;entryX=1;entryY=0;entryDx=0;entryDy=0;" edge="1" parent="1">
          <mxGeometry width="50" height="50" relative="1" as="geometry">
            <mxPoint x="590" y="300" as="sourcePoint" />
            <mxPoint x="520" y="370" as="targetPoint" />
          </mxGeometry>
        </mxCell>
        <mxCell id="fkhrFofiCiA1RjEBbNGL-85" value="(0,N)" style="text;html=1;align=center;verticalAlign=middle;whiteSpace=wrap;rounded=0;" vertex="1" parent="1">
          <mxGeometry x="270" y="360" width="60" height="30" as="geometry" />
        </mxCell>
        <mxCell id="fkhrFofiCiA1RjEBbNGL-87" value="(0,N)" style="text;html=1;align=center;verticalAlign=middle;whiteSpace=wrap;rounded=0;" vertex="1" parent="1">
          <mxGeometry x="680" y="360" width="60" height="30" as="geometry" />
        </mxCell>
        <mxCell id="fkhrFofiCiA1RjEBbNGL-88" value="(0,N)" style="text;html=1;align=center;verticalAlign=middle;whiteSpace=wrap;rounded=0;" vertex="1" parent="1">
          <mxGeometry x="720" y="1161" width="60" height="30" as="geometry" />
        </mxCell>
        <mxCell id="fkhrFofiCiA1RjEBbNGL-89" value="(0,1)" style="text;html=1;align=center;verticalAlign=middle;whiteSpace=wrap;rounded=0;" vertex="1" parent="1">
          <mxGeometry x="-290" y="1161" width="60" height="30" as="geometry" />
        </mxCell>
      </root>
    </mxGraphModel>
  </diagram>
</mxfile>
